<?xml version="1.0" standalone="no"?>
<!DOCTYPE svg PUBLIC "-//W3C//DTD SVG 20010904//EN"
 "http://www.w3.org/TR/2001/REC-SVG-20010904/DTD/svg10.dtd">
<svg version="1.0" xmlns="http://www.w3.org/2000/svg"
 width="357.000000pt" height="299.000000pt" viewBox="0 0 357.000000 299.000000"
 preserveAspectRatio="xMidYMid meet">

<g transform="translate(0.000000,299.000000) scale(0.100000,-0.100000)"
fill="#000000" stroke="none">
<path d="M486 2410 c-95 -30 -133 -160 -68 -235 39 -47 50 -50 205 -55 l150
-5 93 -320 c52 -176 98 -336 104 -356 6 -21 17 -40 25 -43 19 -7 42 2 49 19 5
13 -190 699 -214 753 -9 21 -13 22 -163 22 -141 0 -157 2 -181 21 -33 26 -36
79 -6 109 19 19 33 20 228 20 191 0 210 -2 226 -19 9 -10 91 -274 182 -587 92
-313 171 -575 176 -582 8 -9 159 -12 692 -12 l683 0 21 -23 c29 -31 29 -77 -1
-105 l-23 -22 -730 0 -731 0 -20 23 c-11 12 -37 81 -57 152 -39 135 -55 162
-87 144 -26 -13 -24 -25 20 -176 58 -196 75 -213 214 -213 48 0 87 -2 87 -4 0
-2 -12 -27 -27 -56 -65 -126 -3 -282 130 -326 124 -41 257 28 293 153 19 65
12 120 -22 182 -13 24 -24 45 -24 47 0 2 104 4 230 4 127 0 230 -3 230 -6 0
-3 -9 -18 -19 -33 -28 -38 -44 -109 -37 -160 13 -97 97 -182 192 -197 97 -14
206 43 245 130 28 61 25 151 -6 210 -14 26 -25 49 -25 52 0 2 37 4 83 4 91 0
123 14 158 66 26 40 25 117 -2 160 -11 19 -24 34 -27 34 -4 0 -18 9 -30 18
l-24 18 72 335 c50 232 77 337 87 344 113 72 132 170 47 245 l-35 30 -140 0
c-120 0 -141 -2 -146 -16 -3 -9 -2 -24 4 -33 8 -13 33 -17 134 -19 138 -3 159
-12 159 -67 0 -69 57 -65 -885 -63 l-849 3 -13 44 c-7 24 -15 52 -18 62 -6 18
15 19 678 19 736 0 718 -1 702 49 -6 21 -11 21 -708 23 l-702 3 -18 60 c-26
89 -54 139 -90 161 -29 17 -54 19 -237 21 -113 1 -218 -2 -234 -7z m2234 -637
c0 -5 -26 -129 -58 -278 l-59 -270 -628 0 -627 0 -79 270 c-43 149 -79 273
-79 278 0 4 344 7 765 7 421 0 765 -3 765 -7z"/>
<path d="M1543 1663 c-17 -6 -17 -115 -1 -131 32 -32 68 2 68 67 0 62 -22 83
-67 64z"/>
<path d="M2282 1658 c-7 -7 -12 -36 -12 -65 0 -47 3 -55 25 -65 38 -17 55 4
55 66 0 53 -12 76 -40 76 -9 0 -21 -5 -28 -12z"/>
<path d="M1822 1598 c-42 -42 27 -108 113 -108 88 0 161 61 125 104 -17 21
-37 20 -67 -4 -14 -11 -39 -20 -55 -20 -17 0 -41 9 -55 20 -30 23 -44 25 -61
8z"/>
</g>
</svg>
